<?xml version="1.0" encoding="UTF-8" standalone="no"?>
<!-- Created with Inkscape (http://www.inkscape.org/) -->

<svg
   version="1.1"
   id="svg1"
   width="320"
   height="320"
   viewBox="0 0 320 320"
   sodipodi:docname="icon.svg"
   inkscape:version="1.4.2 (ebf0e940d0, 2025-05-08)"
   xmlns:inkscape="http://www.inkscape.org/namespaces/inkscape"
   xmlns:sodipodi="http://sodipodi.sourceforge.net/DTD/sodipodi-0.dtd"
   xmlns="http://www.w3.org/2000/svg"
   xmlns:svg="http://www.w3.org/2000/svg">
  <defs
     id="defs1" />
  <sodipodi:namedview
     id="namedview1"
     pagecolor="#ffffff"
     bordercolor="#000000"
     borderopacity="0.25"
     inkscape:showpageshadow="2"
     inkscape:pageopacity="0.0"
     inkscape:pagecheckerboard="0"
     inkscape:deskcolor="#d1d1d1"
     showgrid="false"
     inkscape:zoom="4.5372849"
     inkscape:cx="179.51264"
     inkscape:cy="171.46818"
     inkscape:window-width="2160"
     inkscape:window-height="1411"
     inkscape:window-x="0"
     inkscape:window-y="27"
     inkscape:window-maximized="1"
     inkscape:current-layer="g1" />
  <g
     inkscape:groupmode="layer"
     inkscape:label="Image"
     id="g1">
    <ellipse
       style="display:inline;fill:#ffffff"
       id="path319"
       cx="163.86452"
       cy="199.78909"
       rx="100.83122"
       ry="122.20965" />
    <g
       id="g317"
       transform="translate(-2,-6)">
      <path
         style="fill:#f70303"
         d="m 145.87545,325.19069 c -8.32687,0.0205 -10.07359,-0.30107 -12.90722,-2.37628 -1.80241,-1.32 -8.02887,-5.95081 -13.83657,-10.29068 -5.80769,-4.33987 -12.63795,-9.85987 -15.17833,-12.26667 -2.54039,-2.40679 -5.30039,-5.67215 -6.133336,-7.25635 -0.832946,-1.5842 -1.514448,-3.33284 -1.514448,-3.88588 0,-0.55303 0.778216,-1.30414 1.729369,-1.66913 1.073731,-0.41203 2.616605,0.29372 4.069635,1.86156 1.28714,1.38885 6.62893,5.04276 11.87063,8.11979 5.2417,3.07703 15.53037,9.62558 22.8637,14.55233 7.33333,4.92675 14.53333,9.90944 16,11.07266 2.66667,2.11493 2.66667,2.11493 -6.96343,2.13865 z m 45.85056,0.0237 c -2.22348,0 -3.84269,-0.18244 -3.59824,-0.40542 0.24444,-0.22297 5.48444,-3.02567 11.64444,-6.22821 6.16,-3.20255 16.96,-8.85503 24,-12.56108 7.04,-3.70606 13.88,-7.70703 15.2,-8.89105 1.32,-1.18403 2.4,-2.96438 2.4,-3.95633 0,-0.99195 -0.99484,-3.06828 -2.21075,-4.61406 -2.21075,-2.81052 -2.21075,-2.81052 1.46939,-2.81052 2.02408,0 4.2702,0.71097 4.99137,1.57993 0.78685,0.9481 1.08673,3.18761 0.74985,5.6 -0.30876,2.21104 -0.9172,5.46007 -1.35209,7.22007 -0.4349,1.76 -1.55355,3.7937 -2.48591,4.51932 -0.93235,0.72563 -6.81901,3.96684 -13.08145,7.2027 -6.26244,3.23586 -16.40323,7.56217 -22.53509,9.61402 -6.13186,2.05184 -12.96804,3.73063 -15.19152,3.73063 z M 83.593385,297.88736 c -0.621172,3.47198 -0.621172,3.47198 -8.892994,-2.86318 -4.549503,-3.48434 -14.629503,-12.91527 -22.4,-20.95763 -10.152079,-10.50727 -15.460817,-16.96511 -18.863414,-22.9465 -2.60438,-4.57822 -6.346967,-12.61494 -8.31686,-17.85938 -1.969892,-5.24445 -4.511516,-13.94031 -5.648051,-19.32414 -1.497115,-7.09192 -2.071033,-14.09095 -2.083141,-25.40429 -0.0104,-9.71898 0.608028,-18.90886 1.63776,-24.33717 0.90996,-4.79692 3.071338,-13.05744 4.803063,-18.35672 1.731724,-5.29929 5.119494,-13.54756 7.528376,-18.3295 2.408883,-4.78194 6.588698,-12.05444 9.288477,-16.16111 2.69978,-4.10666 10.447498,-13.049954 17.217152,-19.873974 7.811438,-7.874171 15.62106,-14.548823 21.375127,-18.268687 4.986666,-3.223759 11.552489,-7.111236 14.590716,-8.63884 5.524049,-2.777461 5.524049,-2.777461 6.763904,0.979345 0.68192,2.066243 0.97903,4.436514 0.66024,5.267268 -0.31879,0.830754 -2.515143,2.732306 -4.880787,4.225671 -2.819184,1.779673 -5.256854,4.601159 -7.074848,8.188797 -2.544737,5.021796 -2.671643,5.878795 -1.537517,10.382819 0.679887,2.700078 1.739412,5.515616 2.3545,6.256751 0.615087,0.74114 1.561317,1.34752 2.102733,1.34752 0.545317,0 0.675292,-1.647651 0.291401,-3.69397 -0.527002,-2.809159 -0.122987,-4.616259 1.686712,-7.544412 1.308837,-2.117744 3.550182,-4.295458 4.980765,-4.839365 1.430581,-0.543907 5.089811,-0.950292 8.131621,-0.903079 3.04181,0.04721 7.65488,0.647213 10.25128,1.333333 2.5964,0.68612 4.89082,1.770767 5.09872,2.410325 0.2079,0.639559 -3.0317,3.698317 -7.19913,6.797242 -4.16742,3.098924 -9.50293,8.070736 -11.85669,11.048466 -2.35376,2.97773 -5.618354,8.07897 -7.254648,11.33609 -1.636294,3.25712 -3.515206,8.46566 -4.17536,11.57454 -0.660153,3.10887 -1.206471,7.18887 -1.21404,9.06666 -0.0076,1.87779 -0.995675,6.53417 -2.195792,10.3475 -1.200117,3.81334 -2.457053,10.77761 -2.793191,15.47616 -0.525747,7.34892 -0.275656,9.32272 1.789492,14.12329 1.320359,3.06926 2.148424,6.54498 1.840146,7.72384 -0.320789,1.2267 -0.03297,2.15725 0.672967,2.17581 0.67841,0.0178 0.421479,0.50602 -0.570958,1.08484 -1.584156,0.92394 -1.7375,2.57379 -1.256162,13.51522 0.301548,6.85455 1.04143,13.3843 1.644183,14.51055 0.823488,1.5387 0.77595,1.84999 -0.191233,1.25224 -0.959673,-0.59312 -1.092721,0.12043 -0.522946,2.80461 0.420311,1.98006 1.968268,5.20233 3.439905,7.16059 2.582686,3.43671 2.629156,3.77983 1.336728,9.87003 -0.782194,3.68586 -1.053499,8.7385 -0.652448,12.15082 0.37759,3.2127 1.636928,8.38145 2.798529,11.48611 1.161601,3.10465 3.587602,7.31457 5.391118,9.35536 3.06318,3.4662 3.2435,3.53494 2.73832,1.04387 -0.29744,-1.46667 -1.11959,-4.91283 -1.82701,-7.65813 -1.08486,-4.21006 -0.99124,-6.21386 0.59802,-12.8 1.03633,-4.2947 2.35632,-8.70454 2.9333,-9.79965 0.87846,-1.66732 1.26487,-1.75405 2.37623,-0.53333 0.72995,0.80177 2.42378,4.09777 3.76407,7.32444 1.34029,3.22667 5.06553,11.11703 8.27832,17.53415 5.21961,10.4255 5.65736,11.80207 4.11233,12.93183 -0.95101,0.69539 -4.1761,1.58895 -7.16688,1.98569 -4.262,0.56538 -5.85308,0.34551 -7.35846,-1.01685 -1.39502,-1.26247 -2.45585,-1.45689 -3.87608,-0.71038 -1.07547,0.5653 -4.1154,1.35283 -6.755404,1.75008 -2.64,0.39724 -6.013357,1.18705 -7.496348,1.75512 -1.709595,0.65487 -3.629233,2.99777 -5.245495,6.40209 -1.40203,2.95308 -2.828673,6.93163 -3.170318,8.84122 z m 175.919865,-8.50883 c -4.95101,2.38845 -4.95101,2.38845 -8.40714,-2.83447 -2.20038,-3.32524 -4.8366,-5.79971 -7.25558,-6.81042 -2.43411,-1.01704 -6.53274,-1.49341 -11.40555,-1.32564 -4.18336,0.14404 -9.36365,-0.32881 -11.51178,-1.05078 -2.14812,-0.72196 -4.14824,-1.94479 -4.44472,-2.7174 -0.29648,-0.7726 2.04554,-4.84038 5.20447,-9.0395 3.15894,-4.19912 6.26828,-9.66378 6.90964,-12.14367 0.64136,-2.4799 1.95051,-6.62326 2.90922,-9.20747 0.9587,-2.58421 3.86744,-7.58427 6.46385,-11.11124 2.59641,-3.52697 5.38721,-7.89262 6.20178,-9.70144 0.81457,-1.80882 2.43999,-4.48876 3.61203,-5.95542 1.19272,-1.49253 2.62117,-5.71943 3.24426,-9.6 0.6123,-3.81334 1.56894,-7.76683 2.12587,-8.78553 0.55694,-1.01871 1.01261,-2.5956 1.01261,-3.5042 0,-0.9086 -0.80533,-2.88109 -1.78962,-4.38332 -0.9843,-1.50222 -1.86611,-4.00533 -1.95959,-5.56247 -0.0935,-1.55713 0.76369,-5.23115 1.90483,-8.16448 1.67517,-4.30611 1.95278,-6.87418 1.44135,-13.33334 -0.34838,-4.4 -1.35452,-10.64 -2.23587,-13.86666 -0.88134,-3.22667 -1.60814,-8.04582 -1.6151,-10.70923 -0.007,-2.66341 -0.73038,-7.59805 -1.60758,-10.96587 -0.87721,-3.36782 -2.62657,-8.14866 -3.88747,-10.6241 -1.2609,-2.47544 -5.11703,-7.96001 -8.56917,-12.18793 -3.45215,-4.22792 -8.30279,-9.328891 -10.77921,-11.335487 -2.47641,-2.006596 -6.42257,-4.646174 -8.76923,-5.86573 -4.26667,-2.217373 -4.26667,-2.217373 0,-2.270464 2.34666,-0.0292 6.06589,-0.552764 8.26495,-1.163475 2.70174,-0.75031 4.51769,-2.114791 5.6,-4.207747 0.88094,-1.70355 1.60171,-4.801201 1.60171,-6.883668 0,-2.082467 0.24513,-3.786304 0.54473,-3.786304 0.29961,0 4.91051,2.700558 10.24646,6.00124 5.72771,3.543019 13.99238,10.119516 20.17648,16.055166 5.90955,5.672126 13.26431,14.126779 16.87531,19.398979 3.5203,5.13977 8.58099,13.69385 11.24598,19.00906 2.66498,5.31521 6.27014,14.64511 8.01144,20.73312 1.74131,6.08801 3.73877,15.08026 4.43881,19.98279 0.79112,5.54044 1.05306,15.02652 0.69215,25.06666 -0.44321,12.32966 -1.22935,18.73933 -3.32133,27.07991 -1.50737,6.0098 -4.4556,15.36741 -6.55162,20.79468 -2.09601,5.42728 -4.67752,10.83016 -5.73669,12.00642 -1.05917,1.17625 -4.34849,5.77198 -7.30962,10.21272 -2.96112,4.44075 -7.91201,10.84027 -11.00196,14.22118 -3.08995,3.3809 -7.84605,7.22189 -10.5691,8.53553 z m -52.8077,-19.63079 c -0.29334,0 -0.53334,-0.24 -0.53334,-0.53333 0,-0.29333 0.24,-0.53333 0.53334,-0.53333 0.29333,0 0.53333,0.24 0.53333,0.53333 0,0.29333 -0.24,0.53333 -0.53333,0.53333 z M 144.03888,79.350948 c -1.61333,0.418769 -2.93333,0.526554 -2.93333,0.239523 0,-0.287031 3.72,-2.360186 8.26666,-4.607012 8.04746,-3.976812 8.57897,-4.086249 20.04404,-4.127094 9.52678,-0.03394 12.3295,0.319451 14.66667,1.8493 1.58911,1.040191 2.88929,2.360191 2.88929,2.933333 0,0.573142 -1.08,1.03912 -2.4,1.035506 -1.32,-0.0036 -3.77486,-0.723615 -5.45526,-1.6 -1.68039,-0.876386 -5.53359,-1.593429 -8.56266,-1.593429 -3.33009,0 -6.47406,0.67708 -7.95254,1.712643 -1.34482,0.941954 -5.41163,2.091361 -9.03734,2.554238 -3.62571,0.462877 -7.9122,1.184223 -9.52553,1.602992 z"
         id="path318" />
      <path
         style="fill:#0b0607"
         d="m 128.57692,325.21441 c -7.1373,0 -8.40116,-0.37824 -18.24783,-5.46104 -5.81867,-3.00357 -14.114339,-8.17786 -18.434809,-11.49843 -5.81043,-4.46569 -7.94228,-6.78252 -8.18913,-8.8997 -0.18355,-1.57427 0.986775,-5.73915 2.600723,-9.2553 2.012407,-4.38423 3.793073,-6.72225 5.667061,-7.44087 1.502936,-0.57634 4.892611,-1.3729 7.532611,-1.77014 2.640004,-0.39725 5.679934,-1.18478 6.755404,-1.75008 1.42023,-0.74651 2.48106,-0.55209 3.87608,0.71038 1.50538,1.36236 3.09646,1.58223 7.35846,1.01685 2.99078,-0.39674 6.21587,-1.2903 7.16688,-1.98569 1.54503,-1.12976 1.10728,-2.50633 -4.11233,-12.93183 -3.21279,-6.41712 -6.93803,-14.30748 -8.27832,-17.53415 -1.34029,-3.22667 -3.03412,-6.52267 -3.76407,-7.32444 -1.11136,-1.22072 -1.49777,-1.13399 -2.37623,0.53333 -0.57698,1.09511 -1.89697,5.50495 -2.9333,9.79965 -1.58926,6.58614 -1.68288,8.58994 -0.59802,12.8 0.70742,2.7453 1.52957,6.19146 1.82701,7.65813 0.50518,2.49107 0.32486,2.42233 -2.73832,-1.04387 -1.803516,-2.04079 -4.229517,-6.25071 -5.391118,-9.35536 -1.161601,-3.10466 -2.420939,-8.27341 -2.798529,-11.48611 -0.401051,-3.41232 -0.129746,-8.46496 0.652448,-12.15082 1.292428,-6.0902 1.245958,-6.43332 -1.336728,-9.87003 -1.471637,-1.95826 -2.998258,-5.08339 -3.39249,-6.94472 -0.658268,-3.10794 -0.523557,-3.3337 1.650026,-2.76529 2.236858,0.58495 2.322861,0.39007 1.566313,-3.5491 -0.440276,-2.29242 -1.053817,-5.60804 -1.363426,-7.36804 -0.309608,-1.76 -1.258218,-3.9951 -2.108022,-4.96689 -0.875643,-1.00134 -1.397052,-3.27655 -1.203408,-5.25119 0.18793,-1.91636 0.930879,-3.67766 1.650998,-3.91399 0.72012,-0.23633 2.524886,0.88194 4.010592,2.48504 1.485706,1.60311 2.977536,2.63849 3.315177,2.30084 0.337642,-0.33764 -0.223134,-2.37779 -1.246167,-4.53368 -1.023034,-2.15588 -2.925896,-4.40541 -4.228582,-4.99896 -1.610193,-0.73365 -2.19847,-1.72944 -1.837391,-3.11021 0.292121,-1.11707 -0.549163,-4.54225 -1.869522,-7.61151 -2.065148,-4.80057 -2.315239,-6.77437 -1.789492,-14.12329 0.336138,-4.69855 1.593074,-11.66282 2.793191,-15.47616 1.200117,-3.81333 2.188223,-8.46971 2.195792,-10.3475 0.0076,-1.87779 0.553887,-5.95779 1.21404,-9.06666 0.660154,-3.10888 2.539066,-8.31742 4.17536,-11.57454 1.636294,-3.25712 4.900888,-8.35836 7.254648,-11.33609 2.35376,-2.97773 7.68927,-7.949542 11.85669,-11.048466 4.16743,-3.098925 7.40703,-6.157683 7.19913,-6.797242 -0.2079,-0.639558 -2.50232,-1.724205 -5.09872,-2.410325 -2.5964,-0.68612 -7.20947,-1.28612 -10.25128,-1.333333 -3.04181,-0.04721 -6.70104,0.359172 -8.131621,0.903079 -1.430583,0.543907 -3.671928,2.721621 -4.980765,4.839365 -1.809699,2.928153 -2.213714,4.735253 -1.686712,7.544412 0.383891,2.046319 0.253916,3.69397 -0.291401,3.69397 -0.541416,0 -1.487646,-0.60638 -2.102733,-1.34752 -0.615088,-0.741135 -1.674613,-3.556673 -2.3545,-6.256751 -1.134126,-4.504024 -1.00722,-5.361023 1.537517,-10.382819 1.783657,-3.519878 4.258718,-6.411052 6.934228,-8.100028 2.288304,-1.444542 4.480557,-3.144224 4.871677,-3.77707 0.39112,-0.632846 0.12608,-3.652296 -0.58897,-6.709888 -0.715062,-3.057592 -2.194721,-8.949876 -3.288135,-13.093964 -1.093414,-4.144088 -1.988025,-7.864088 -1.988025,-8.266667 0,-0.402579 0.613111,-0.731961 1.36247,-0.731961 0.749358,0 2.626048,1.44 4.17042,3.2 2.12209,2.418376 3.72562,3.2 6.5649,3.2 2.8903,0 4.22993,-0.676654 5.80736,-2.933334 1.12773,-1.613333 2.36956,-4.253333 2.75962,-5.866666 0.45963,-1.901074 1.41096,-2.933334 2.70335,-2.933334 1.16716,0 6.55912,-4.911992 13.00177,-11.844408 6.0542,-6.514424 13.80953,-13.747143 17.23408,-16.0727085 3.42454,-2.3255652 6.68679,-4.0748505 7.24944,-3.8873008 0.56265,0.1875498 -1.13919,2.9768646 -3.78187,6.1984773 -2.64268,3.221613 -4.80487,6.220882 -4.80487,6.665042 0,0.444161 0.89965,0.807565 1.99922,0.807565 1.09958,0 4.09958,-0.756405 6.66667,-1.6809 3.43277,-1.236256 6.64258,-1.505605 12.13411,-1.018224 4.10666,0.364472 10.38471,1.61274 13.95121,2.773929 3.56651,1.161188 9.63125,3.782152 13.4772,5.824363 4.12582,2.190818 7.22071,4.585214 7.54892,5.840305 0.30595,1.169957 1.09628,2.127194 1.75628,2.127194 0.66001,0 1.48912,-0.753406 1.84247,-1.674234 0.35336,-0.920829 -0.58578,-4.520829 -2.08696,-8 -1.89919,-4.401583 -2.31654,-6.325766 -1.37205,-6.325766 0.74656,0 4.94016,3.056996 9.31911,6.793325 4.37896,3.73633 9.53698,9.248126 11.46228,12.248436 2.68762,4.188295 3.62974,7.007514 4.05694,12.140008 0.30603,3.676693 1.29691,7.863461 2.20195,9.303927 1.17338,1.86756 1.60855,5.151076 1.51667,11.443734 -0.0822,5.626636 -0.72354,9.974694 -1.76981,11.997971 -1.12228,2.170246 -2.90476,3.524243 -5.63926,4.283651 -2.19906,0.610711 -5.91829,1.134275 -8.26495,1.163475 -4.26667,0.05309 -4.26667,0.05309 0,2.270464 2.34666,1.219556 6.29282,3.859134 8.76923,5.86573 2.47642,2.006596 7.32706,7.107567 10.77921,11.335487 3.45214,4.22792 7.30827,9.71249 8.56917,12.18793 1.2609,2.47544 3.01026,7.25628 3.88747,10.6241 0.8772,3.36782 1.60061,8.30246 1.60758,10.96587 0.007,2.66341 0.73376,7.48256 1.6151,10.70923 0.88135,3.22666 1.88749,9.46666 2.23587,13.86666 0.52123,6.58292 0.24687,8.96919 -1.54886,13.47144 -1.20026,3.00929 -1.94897,6.36929 -1.66379,7.46666 0.35306,1.3586 -0.26369,2.33559 -1.93291,3.0619 -1.34827,0.58667 -3.39993,2.83815 -4.55923,5.00328 -1.15931,2.16514 -1.81777,4.22668 -1.46325,4.5812 0.35452,0.35452 2.14159,-0.85243 3.97127,-2.68211 1.82969,-1.82969 4.16264,-3.16571 5.18434,-2.96895 1.0217,0.19676 2.02374,1.22027 2.22676,2.27447 0.20302,1.0542 0.0829,2.66275 -0.26704,3.57455 -0.48465,1.26298 -0.98053,1.37203 -2.08202,0.45787 -1.09828,-0.91149 -1.79613,-0.7779 -2.90294,0.55573 -0.84142,1.01385 -1.51126,4.51231 -1.58531,8.27982 -0.0705,3.58828 -0.90285,9.16414 -1.8496,12.39081 -0.95982,3.27121 -4.01076,8.99592 -6.89622,12.9399 -2.84617,3.89029 -5.95264,9.17029 -6.90326,11.73334 -0.95063,2.56305 -2.25317,6.6891 -2.89453,9.169 -0.64136,2.47989 -3.7507,7.94455 -6.90964,12.14367 -3.15893,4.19912 -5.50095,8.2669 -5.20447,9.0395 0.29648,0.77261 2.2966,1.99544 4.44472,2.7174 2.14813,0.72197 7.32842,1.19482 11.51178,1.05078 4.82127,-0.166 8.97399,0.30967 11.34219,1.29916 2.20271,0.92035 5.10054,3.5442 7.06057,6.393 1.82846,2.65757 3.32447,6.02395 3.32447,7.48082 0,1.88103 -1.3141,3.61754 -4.53333,5.99052 -3.48733,2.57061 -4.61043,2.97397 -4.86745,1.74818 -0.18376,-0.87641 0.17624,-2.54707 0.8,-3.71258 0.62377,-1.16551 1.13412,-3.73467 1.13412,-5.70923 0,-1.97457 -0.576,-4.16613 -1.28,-4.87013 -0.704,-0.704 -2.89884,-1.28 -4.87742,-1.28 -3.59742,0 -3.59742,0 -1.38667,2.81052 1.21591,1.54578 2.21075,3.62211 2.21075,4.61406 0,0.99195 -1.08,2.7723 -2.4,3.95633 -1.32,1.18402 -8.16,5.18567 -15.2,8.89255 -7.04,3.70688 -18.1764,9.5418 -24.74755,12.96649 -11.94756,6.22672 -11.94756,6.22672 -27.56732,6.22672 -15.61976,0 -15.61976,0 -24.31911,-6.20862 -4.78464,-3.41474 -12.05935,-8.40187 -16.16602,-11.08251 -4.10666,-2.68065 -11.75533,-7.39771 -16.99703,-10.48237 -5.2417,-3.08465 -10.58349,-6.7448 -11.87063,-8.13365 -1.45303,-1.56784 -2.995904,-2.27359 -4.069635,-1.86156 -0.951153,0.36499 -1.729369,1.1161 -1.729369,1.66913 0,0.55304 0.681502,2.30168 1.514448,3.88588 0.832946,1.5842 3.592946,4.84956 6.133336,7.25635 2.54038,2.4068 9.37064,7.9268 15.17833,12.26667 5.8077,4.33987 12.03416,8.97068 13.83657,10.29068 3.27711,2.4 3.27711,2.4 -4.39131,2.4 z m 48.18283,-5.33333 c 1.42314,0 8.26314,-2.84926 15.2,-6.33168 6.93685,-3.48243 13.45321,-6.96243 14.48078,-7.73334 1.4571,-1.09314 1.92665,-3.25537 2.13334,-9.82371 0.16696,-5.30599 -0.16189,-8.57264 -0.88882,-8.82905 -0.63461,-0.22385 -8.43461,6.61127 -17.33333,15.18915 -8.89873,8.57788 -16.17951,16.03095 -16.17951,16.56239 0,0.53143 1.16439,0.96624 2.58754,0.96624 z m -6.54504,-26.67324 c 6.10785,0.005 9.37605,-0.53772 12.3363,-2.04793 2.21493,-1.12997 7.83581,-5.50047 12.49084,-9.71221 4.65503,-4.21175 9.77232,-9.58251 11.37175,-11.93504 1.59942,-2.35252 3.21603,-5.919 3.59245,-7.92551 0.37642,-2.00651 0.41523,-4.99408 0.0862,-6.63906 -0.52159,-2.60794 0.25277,-3.79804 6.04835,-9.2956 3.65559,-3.46761 7.49657,-8.11716 8.53552,-10.33234 1.03896,-2.21518 2.62952,-7.49518 3.53459,-11.73333 0.90507,-4.23816 1.71666,-12.26574 1.80353,-17.83908 0.14836,-9.51828 0.0285,-10.12467 -1.97539,-9.99061 -1.17333,0.0785 -7.65333,1.6551 -14.4,3.50358 -8.77382,2.40387 -16.71945,3.71283 -27.90453,4.59697 -11.86325,0.93774 -18.94364,0.93713 -29.33334,-0.002 -7.99551,-0.72311 -19.91061,-2.76777 -28.6288,-4.91275 -11.40497,-2.80604 -15.2802,-3.38695 -16.40141,-2.45865 -1.14148,0.9451 -1.31512,3.24171 -0.7805,10.32368 0.37817,5.00949 1.63374,13.06959 2.79015,17.91131 1.15642,4.84173 3.06081,10.68144 4.23198,12.97713 1.17118,2.29569 4.53601,6.24651 7.47741,8.77958 4.35512,3.75055 5.34809,5.24227 5.34852,8.03498 2.8e-4,1.88617 0.76678,5.68637 1.70332,8.44489 0.93655,2.75852 2.88859,6.80733 4.33787,8.99735 1.44929,2.19001 6.39061,7.15109 10.98071,11.0246 4.59011,3.87352 9.71807,7.75853 11.39547,8.63336 1.93717,1.01031 6.08119,1.593 11.35898,1.59718 z m -1.24594,-99.27823 c 16.69795,0.0753 19.96821,-0.21241 29.29061,-2.57723 5.77172,-1.46412 11.23327,-3.43602 12.13677,-4.38199 1.50449,-1.57521 1.12277,-1.68011 -4.5359,-1.24646 -3.39825,0.26043 -6.39177,0.12865 -6.65227,-0.29285 -0.2605,-0.42149 1.79989,-1.72334 4.57863,-2.89299 2.77875,-1.16965 8.29227,-3.18511 12.25227,-4.47879 3.96,-1.29369 7.2,-2.79302 7.2,-3.33186 0,-0.53883 -0.84,-0.97904 -1.86667,-0.97824 -1.02666,8e-4 -5.94666,0.72015 -10.93333,1.59854 -4.98667,0.8784 -10.74667,1.56645 -12.8,1.52901 -3.51693,-0.0641 -3.28292,-0.27776 4.03701,-3.68559 4.27369,-1.98964 9.19369,-4.63104 10.93334,-5.86977 1.73964,-1.23874 3.16298,-2.74461 3.16298,-3.34638 0,-0.69964 -1.92291,-0.82965 -5.33333,-0.3606 -3.54683,0.48781 -5.33333,0.3495 -5.33333,-0.41292 0,-0.63054 1.32,-1.42982 2.93333,-1.77619 1.61333,-0.34636 3.89333,-1.08636 5.06667,-1.64444 1.44635,-0.68795 -0.44283,-0.81479 -5.86667,-0.39391 -4.4,0.34144 -14.58462,1.0196 -22.63249,1.50702 -8.08035,0.48939 -20.25997,0.46794 -27.2,-0.0479 -6.91213,-0.51376 -16.30913,-1.47944 -20.88222,-2.14596 -4.57309,-0.66652 -8.59512,-0.93144 -8.93784,-0.58872 -0.34272,0.34273 0.6389,1.19815 2.18138,1.90095 1.54247,0.70281 2.8045,1.63526 2.8045,2.07212 0,0.43687 -2.88,0.53316 -6.4,0.21397 -4.26869,-0.38707 -6.4,-0.1925 -6.4,0.58427 0,0.64053 4.35126,3.41193 9.66947,6.15868 5.31821,2.74675 9.27821,5.38329 8.8,5.85898 -0.47821,0.47569 -5.63868,-0.0598 -11.46772,-1.19006 -5.82904,-1.13022 -10.79711,-1.85609 -11.04015,-1.61306 -0.24304,0.24304 -0.0868,1.01635 0.34707,1.71845 0.43393,0.70211 4.682,3.06779 9.44015,5.25707 4.75815,2.18928 9.61118,4.38974 10.78452,4.88992 1.57807,0.67272 0.32874,1.05808 -4.8,1.48057 -6.93334,0.57115 -6.93334,0.57115 -1.06667,2.98519 3.22667,1.32772 8.98667,3.08956 12.8,3.9152 4.3699,0.94614 13.88291,1.53251 25.72989,1.58596 z M 144.03888,79.350948 c 1.61333,-0.418769 5.89982,-1.140115 9.52553,-1.602992 3.62571,-0.462877 7.69252,-1.612284 9.03734,-2.554238 1.47848,-1.035563 4.62245,-1.712643 7.95254,-1.712643 3.02907,0 6.88227,0.717043 8.56266,1.593429 1.6804,0.876385 4.13526,1.596385 5.45526,1.6 1.32,0.0036 2.4,-0.462364 2.4,-1.035506 0,-0.573142 -1.30018,-1.893142 -2.88929,-2.933333 -2.33717,-1.529849 -5.13989,-1.883239 -14.66667,-1.8493 -11.46507,0.04085 -11.99658,0.150282 -20.04404,4.127094 -4.54666,2.246826 -8.26666,4.319981 -8.26666,4.607012 0,0.287031 1.32,0.179246 2.93333,-0.239523 z"
         id="path317" />
    </g>
  </g>
</svg>
